<?xml version="1.0" encoding="utf-8"?>
<!-- Generator: Adobe Illustrator 25.0.0, SVG Export Plug-In . SVG Version: 6.00 Build 0)  -->
<svg version="1.1" id="Layer_1" xmlns="http://www.w3.org/2000/svg" xmlns:xlink="http://www.w3.org/1999/xlink" x="0px" y="0px"
	 viewBox="0 0 225 225" style="enable-background:new 0 0 225 225;" xml:space="preserve">
<style type="text/css">
	.st0{clip-path:url(#SVGID_2_);fill:url(#SVGID_3_);}
	.st1{fill:#FFFFFF;}
</style>
<g>
	<g>
		<g>
			<defs>
				<path id="SVGID_1_" d="M67.7,32.2c-19.5,0-35.3,15.9-35.3,35.6v89.1c0,19.7,15.8,35.6,35.3,35.6h89.6
					c19.5,0,35.3-15.9,35.3-35.6V67.8c0-19.6-15.8-35.6-35.3-35.6C157.3,32.2,67.7,32.2,67.7,32.2z"/>
			</defs>
			<clipPath id="SVGID_2_">
				<use xlink:href="#SVGID_1_"  style="overflow:visible;"/>
			</clipPath>
			
				<radialGradient id="SVGID_3_" cx="-1243.8877" cy="157.9141" r="3.9815" gradientTransform="matrix(20.0479 0 0 20.2016 25049.8359 -3077.7673)" gradientUnits="userSpaceOnUse">
				<stop  offset="0" style="stop-color:#4B5EAA"/>
				<stop  offset="1" style="stop-color:#2E3192"/>
			</radialGradient>
			<rect x="32.4" y="32.2" class="st0" width="160.2" height="160.3"/>
		</g>
	</g>
	<path class="st1" d="M117.7,46.5l0.2-14.4H106l0.2,14.4C72.4,49.3,45.9,77.6,45.9,112c0,34.5,26.5,62.7,60.2,65.6l0.2,14.9
		l11.5,0.4l-0.2-15.3c33.6-3,59.9-31.2,59.9-65.6C177.6,77.7,151.3,49.4,117.7,46.5 M112.2,58.6l8.6,16.3h-17.4L112.2,58.6z
		 M111.8,166.5c-30,0-54.4-24.4-54.4-54.4c0-25.6,17.7-47.1,41.5-52.9h0.5c0,0,0.7-0.2,2-0.4L88,83.3h47.7l-13-24.6
		c1.1,0.3,1.6,0.5,1.6,0.5h0.5c23.8,5.8,41.5,27.3,41.5,52.9C166.2,142.1,141.8,166.5,111.8,166.5"/>
</g>
</svg>
