<svg id="Camada_1" data-name="Camada 1" xmlns="http://www.w3.org/2000/svg" xmlns:xlink="http://www.w3.org/1999/xlink" viewBox="0 0 452 447"><defs><style>.cls-1{fill:none;}.cls-2{clip-path:url(#clip-path);}.cls-3{fill:url(#Gradiente_sem_nome_10);}.cls-4{fill:#fff;}</style><clipPath id="clip-path"><path class="cls-1" d="M104.43,6.36C51.69,6.36,9,49.42,9,102.55V343.61c0,53.17,42.74,96.22,95.48,96.22H346.71c52.74,0,95.5-43.05,95.5-96.22V102.55c0-53.13-42.76-96.19-95.5-96.19Z"/></clipPath><radialGradient id="Gradiente_sem_nome_10" cx="614.49" cy="1593.82" r="10.77" gradientTransform="matrix(20.05, 0, 0, -20.2, -12093.58, 32420.97)" gradientUnits="userSpaceOnUse"><stop offset="0" stop-color="#4b5eaa"/><stop offset="1" stop-color="#2e3192"/></radialGradient></defs><g class="cls-2"><rect class="cls-3" x="8.95" y="6.36" width="433.26" height="433.47"/></g><path class="cls-4" d="M239.58,44.91,240,6H208l.47,38.86C117.21,52.58,45.56,129,45.56,222.24S117.21,391.9,208.47,399.61L209,440l31,1-.42-41.44a178,178,0,0,0,0-354.65M224.69,77.69l23.19,44H200.82Zm-1.06,291.79c-81.16,0-147.2-66.05-147.2-147.24,0-69.12,47.91-127.3,112.33-143H190s1.89-.52,5.31-1.16L159.2,144.55H288.07L253,78a28.51,28.51,0,0,1,4.26,1.28h1.23c64.35,15.66,112.35,73.84,112.35,143,0,81.19-66.06,147.24-147.24,147.24"/></svg>